<svg xmlns="http://www.w3.org/2000/svg" xmlns:xlink="http://www.w3.org/1999/xlink" width="1400" zoomAndPan="magnify" viewBox="0 0 1050 449.999984" height="600" preserveAspectRatio="xMidYMid meet" version="1.0"><defs><g/><clipPath id="46ce5004a9"><path d="M 0 77.664062 L 411.75 77.664062 L 411.75 185.664062 L 0 185.664062 Z M 0 77.664062 " clip-rule="nonzero"/></clipPath><clipPath id="34d039c11c"><path d="M 0 102 L 84 102 L 84 185.664062 L 0 185.664062 Z M 0 102 " clip-rule="nonzero"/></clipPath><clipPath id="5392d73f81"><path d="M 611.613281 289.792969 L 1031.613281 289.792969 L 1031.613281 384.292969 L 611.613281 384.292969 Z M 611.613281 289.792969 " clip-rule="nonzero"/></clipPath><clipPath id="f54d95c7a1"><path d="M 941 289.792969 L 1031.613281 289.792969 L 1031.613281 378 L 941 378 Z M 941 289.792969 " clip-rule="nonzero"/></clipPath></defs><g fill="#3370bf" fill-opacity="1"><g transform="translate(33.127289, 303.614184)"><g><path d="M 61.09375 -60.21875 L 61.09375 -41.015625 C 61.09375 -35.203125 63.59375 -32.296875 68.59375 -32.296875 L 84.484375 -32.296875 C 85.765625 -32.296875 86.867188 -31.828125 87.796875 -30.890625 C 88.722656 -29.960938 89.1875 -28.859375 89.1875 -27.578125 L 89.1875 -4.71875 C 89.1875 -3.4375 88.722656 -2.328125 87.796875 -1.390625 C 86.867188 -0.460938 85.765625 0 84.484375 0 L 64.75 0 C 35.664062 0 21.125 -12.507812 21.125 -37.53125 L 21.125 -60.21875 L 7.328125 -60.21875 C 6.046875 -60.21875 4.941406 -60.679688 4.015625 -61.609375 C 3.085938 -62.546875 2.625 -63.65625 2.625 -64.9375 L 2.625 -86.046875 C 2.625 -87.328125 3.085938 -88.429688 4.015625 -89.359375 C 4.941406 -90.296875 6.046875 -90.765625 7.328125 -90.765625 L 21.125 -90.765625 L 21.125 -119.21875 C 21.125 -120.5 21.585938 -121.601562 22.515625 -122.53125 C 23.441406 -123.457031 24.546875 -123.921875 25.828125 -123.921875 L 56.375 -123.921875 C 57.65625 -123.921875 58.757812 -123.457031 59.6875 -122.53125 C 60.625 -121.601562 61.09375 -120.5 61.09375 -119.21875 L 61.09375 -90.765625 L 83.078125 -90.765625 C 84.359375 -90.765625 85.460938 -90.296875 86.390625 -89.359375 C 87.328125 -88.429688 87.796875 -87.328125 87.796875 -86.046875 L 87.796875 -64.9375 C 87.796875 -63.65625 87.328125 -62.546875 86.390625 -61.609375 C 85.460938 -60.679688 84.359375 -60.21875 83.078125 -60.21875 Z M 61.09375 -60.21875 "/></g></g></g><g fill="#3370bf" fill-opacity="1"><g transform="translate(125.807511, 303.614184)"><g><path d="M 100.890625 -35.078125 L 48.875 -35.078125 L 48.875 -34.21875 C 48.875 -27.113281 51.144531 -23.5625 55.6875 -23.5625 C 56.957031 -23.5625 58.523438 -24.492188 60.390625 -26.359375 C 62.253906 -28.222656 64.289062 -29.15625 66.5 -29.15625 L 99.484375 -29.15625 C 102.046875 -29.15625 103.328125 -27.875 103.328125 -25.3125 C 103.328125 -19.601562 99.050781 -13.664062 90.5 -7.5 C 81.945312 -1.332031 70.367188 1.75 55.765625 1.75 C 41.160156 1.75 29.234375 -2.0625 19.984375 -9.6875 C 10.734375 -17.3125 6.109375 -27.8125 6.109375 -41.1875 L 6.109375 -49.578125 C 6.109375 -62.253906 10.820312 -72.578125 20.25 -80.546875 C 29.675781 -88.523438 42.039062 -92.515625 57.34375 -92.515625 C 72.644531 -92.515625 84.507812 -88.03125 92.9375 -79.0625 C 101.375 -70.101562 105.59375 -58.757812 105.59375 -45.03125 L 105.59375 -39.796875 C 105.59375 -38.515625 105.128906 -37.40625 104.203125 -36.46875 C 103.273438 -35.539062 102.171875 -35.078125 100.890625 -35.078125 Z M 62.84375 -57.59375 C 62.84375 -64.582031 60.515625 -68.078125 55.859375 -68.078125 C 51.203125 -68.078125 48.875 -64.582031 48.875 -57.59375 L 48.875 -56.90625 L 62.84375 -56.90625 Z M 62.84375 -57.59375 "/></g></g></g><g fill="#3370bf" fill-opacity="1"><g transform="translate(237.512482, 303.614184)"><g><path d="M 48.875 -51.484375 L 48.875 -39.265625 C 48.875 -35.316406 49.394531 -32.46875 50.4375 -30.71875 C 51.488281 -28.976562 53.117188 -28.109375 55.328125 -28.109375 C 57.535156 -28.109375 59.046875 -28.484375 59.859375 -29.234375 C 60.679688 -29.992188 61.523438 -31.445312 62.390625 -33.59375 C 63.265625 -35.75 64.925781 -36.828125 67.375 -36.828125 L 101.40625 -36.828125 C 102.6875 -36.828125 103.789062 -36.359375 104.71875 -35.421875 C 105.65625 -34.492188 106.125 -33.273438 106.125 -31.765625 C 106.125 -30.253906 105.597656 -28.21875 104.546875 -25.65625 C 103.503906 -23.09375 101.703125 -20.179688 99.140625 -16.921875 C 96.578125 -13.671875 93.429688 -10.675781 89.703125 -7.9375 C 85.984375 -5.207031 81.097656 -2.910156 75.046875 -1.046875 C 69.003906 0.816406 62.316406 1.75 54.984375 1.75 C 40.429688 1.75 28.644531 -2.0625 19.625 -9.6875 C 10.613281 -17.3125 6.109375 -27.875 6.109375 -41.375 L 6.109375 -49.390625 C 6.109375 -62.890625 10.613281 -73.453125 19.625 -81.078125 C 28.644531 -88.703125 40.429688 -92.515625 54.984375 -92.515625 C 63.597656 -92.515625 71.394531 -91.203125 78.375 -88.578125 C 85.351562 -85.960938 90.734375 -82.765625 94.515625 -78.984375 C 98.296875 -75.203125 101.175781 -71.503906 103.15625 -67.890625 C 105.132812 -64.285156 106.125 -61.523438 106.125 -59.609375 C 106.125 -57.691406 105.65625 -56.265625 104.71875 -55.328125 C 103.789062 -54.398438 102.6875 -53.9375 101.40625 -53.9375 L 67.375 -53.9375 C 65.164062 -53.9375 63.476562 -55.097656 62.3125 -57.421875 C 60.6875 -60.910156 58.535156 -62.65625 55.859375 -62.65625 C 51.203125 -62.65625 48.875 -58.929688 48.875 -51.484375 Z M 48.875 -51.484375 "/></g></g></g><g fill="#3370bf" fill-opacity="1"><g transform="translate(348.868384, 303.614184)"><g><path d="M 52.1875 -51.671875 L 52.1875 -4.71875 C 52.1875 -3.4375 51.71875 -2.328125 50.78125 -1.390625 C 49.851562 -0.460938 48.753906 0 47.484375 0 L 13.4375 0 C 12.15625 0 11.050781 -0.460938 10.125 -1.390625 C 9.195312 -2.328125 8.734375 -3.4375 8.734375 -4.71875 L 8.734375 -119.21875 C 8.734375 -120.5 9.195312 -121.601562 10.125 -122.53125 C 11.050781 -123.457031 12.15625 -123.921875 13.4375 -123.921875 L 47.484375 -123.921875 C 48.753906 -123.921875 49.851562 -123.457031 50.78125 -122.53125 C 51.71875 -121.601562 52.1875 -120.5 52.1875 -119.21875 L 52.1875 -81.6875 C 58.820312 -88.90625 67.316406 -92.515625 77.671875 -92.515625 C 88.023438 -92.515625 96.578125 -89.140625 103.328125 -82.390625 C 110.078125 -75.640625 113.453125 -65.804688 113.453125 -52.890625 L 113.453125 -4.890625 C 113.453125 -3.609375 112.984375 -2.5 112.046875 -1.5625 C 111.117188 -0.632812 110.019531 -0.171875 108.75 -0.171875 L 74.53125 -0.171875 C 73.25 -0.171875 72.140625 -0.632812 71.203125 -1.5625 C 70.273438 -2.5 69.8125 -3.609375 69.8125 -4.890625 L 69.8125 -51.671875 C 69.8125 -58.066406 66.875 -61.265625 61 -61.265625 C 55.125 -61.265625 52.1875 -58.066406 52.1875 -51.671875 Z M 52.1875 -51.671875 "/></g></g></g><g fill="#3370bf" fill-opacity="1"><g transform="translate(470.173001, 303.614184)"><g><path d="M 8.203125 -83.78125 C 8.203125 -95.65625 13.117188 -105.3125 22.953125 -112.75 C 32.785156 -120.195312 45.703125 -123.921875 61.703125 -123.921875 C 77.703125 -123.921875 90.789062 -120.019531 100.96875 -112.21875 C 111.15625 -104.425781 116.25 -96.285156 116.25 -87.796875 C 116.25 -86.742188 115.867188 -85.835938 115.109375 -85.078125 C 114.359375 -84.328125 113.515625 -83.953125 112.578125 -83.953125 L 77.671875 -83.953125 C 74.992188 -83.953125 72.550781 -84.941406 70.34375 -86.921875 C 68.132812 -88.898438 65.164062 -89.890625 61.4375 -89.890625 C 55.851562 -89.890625 53.0625 -88.257812 53.0625 -85 C 53.0625 -83.257812 54.425781 -81.804688 57.15625 -80.640625 C 59.894531 -79.472656 64.988281 -78.425781 72.4375 -77.5 C 89.769531 -75.289062 102.128906 -71.242188 109.515625 -65.359375 C 116.910156 -59.484375 120.609375 -50.582031 120.609375 -38.65625 C 120.609375 -26.726562 115.164062 -17.007812 104.28125 -9.5 C 93.40625 -2 79.179688 1.75 61.609375 1.75 C 44.046875 1.75 30.257812 -1.851562 20.25 -9.0625 C 10.238281 -16.28125 5.234375 -25.070312 5.234375 -35.4375 C 5.234375 -36.476562 5.609375 -37.375 6.359375 -38.125 C 7.117188 -38.882812 8.023438 -39.265625 9.078125 -39.265625 L 42.234375 -39.265625 C 44.679688 -39.265625 47.390625 -38.101562 50.359375 -35.78125 C 53.328125 -33.457031 57.425781 -32.296875 62.65625 -32.296875 C 71.382812 -32.296875 75.75 -33.921875 75.75 -37.171875 C 75.75 -39.273438 74.175781 -40.878906 71.03125 -41.984375 C 67.894531 -43.085938 61.960938 -44.21875 53.234375 -45.375 C 23.210938 -49.332031 8.203125 -62.132812 8.203125 -83.78125 Z M 8.203125 -83.78125 "/></g></g></g><g fill="#3370bf" fill-opacity="1"><g transform="translate(596.015611, 303.614184)"><g><path d="M 87.96875 -122.1875 L 122.1875 -122.1875 C 123.46875 -122.1875 124.570312 -121.71875 125.5 -120.78125 C 126.425781 -119.851562 126.890625 -118.75 126.890625 -117.46875 L 126.890625 -4.71875 C 126.890625 -3.4375 126.425781 -2.328125 125.5 -1.390625 C 124.570312 -0.460938 123.46875 0 122.1875 0 L 87.96875 0 C 86.6875 0 85.582031 -0.460938 84.65625 -1.390625 C 83.726562 -2.328125 83.265625 -3.4375 83.265625 -4.71875 L 83.265625 -42.421875 L 54.984375 -42.421875 L 54.984375 -4.71875 C 54.984375 -3.4375 54.515625 -2.328125 53.578125 -1.390625 C 52.648438 -0.460938 51.546875 0 50.265625 0 L 16.0625 0 C 14.78125 0 13.671875 -0.4375 12.734375 -1.3125 C 11.804688 -2.1875 11.34375 -3.320312 11.34375 -4.71875 L 11.34375 -117.46875 C 11.34375 -118.75 11.804688 -119.851562 12.734375 -120.78125 C 13.671875 -121.71875 14.78125 -122.1875 16.0625 -122.1875 L 50.265625 -122.1875 C 51.546875 -122.1875 52.648438 -121.71875 53.578125 -120.78125 C 54.515625 -119.851562 54.984375 -118.75 54.984375 -117.46875 L 54.984375 -80.8125 L 83.265625 -80.8125 L 83.265625 -117.46875 C 83.265625 -118.75 83.726562 -119.851562 84.65625 -120.78125 C 85.582031 -121.71875 86.6875 -122.1875 87.96875 -122.1875 Z M 87.96875 -122.1875 "/></g></g></g><g fill="#3370bf" fill-opacity="1"><g transform="translate(734.250523, 303.614184)"><g><path d="M 23.828125 -111 C 34.472656 -119.613281 48.582031 -123.921875 66.15625 -123.921875 C 83.726562 -123.921875 97.835938 -119.585938 108.484375 -110.921875 C 119.128906 -102.253906 124.453125 -90.066406 124.453125 -74.359375 L 124.453125 -47.125 C 124.453125 -31.1875 119.1875 -19.054688 108.65625 -10.734375 C 98.125 -2.410156 83.957031 1.75 66.15625 1.75 C 48.351562 1.75 34.1875 -2.410156 23.65625 -10.734375 C 13.125 -19.054688 7.859375 -31.1875 7.859375 -47.125 L 7.859375 -74.359375 C 7.859375 -90.179688 13.179688 -102.394531 23.828125 -111 Z M 56.71875 -35.78125 C 59.050781 -33.457031 62.195312 -32.296875 66.15625 -32.296875 C 70.113281 -32.296875 73.253906 -33.457031 75.578125 -35.78125 C 77.898438 -38.101562 79.0625 -41.648438 79.0625 -46.421875 L 79.0625 -75.75 C 79.0625 -80.40625 77.898438 -83.925781 75.578125 -86.3125 C 73.253906 -88.695312 70.113281 -89.890625 66.15625 -89.890625 C 62.195312 -89.890625 59.050781 -88.695312 56.71875 -86.3125 C 54.394531 -83.925781 53.234375 -80.40625 53.234375 -75.75 L 53.234375 -46.421875 C 53.234375 -41.648438 54.394531 -38.101562 56.71875 -35.78125 Z M 56.71875 -35.78125 "/></g></g></g><g fill="#3370bf" fill-opacity="1"><g transform="translate(866.551083, 303.614184)"><g><path d="M 16.0625 -122.1875 L 68.078125 -122.1875 C 84.828125 -122.1875 97.914062 -118.578125 107.34375 -111.359375 C 116.769531 -104.140625 121.484375 -93.488281 121.484375 -79.40625 C 121.484375 -65.332031 116.796875 -54.921875 107.421875 -48.171875 C 98.054688 -41.421875 84.941406 -38.046875 68.078125 -38.046875 L 56.734375 -38.046875 L 56.734375 -4.71875 C 56.734375 -3.4375 56.265625 -2.328125 55.328125 -1.390625 C 54.398438 -0.460938 53.296875 0 52.015625 0 L 16.0625 0 C 14.78125 0 13.671875 -0.460938 12.734375 -1.390625 C 11.804688 -2.328125 11.34375 -3.4375 11.34375 -4.71875 L 11.34375 -117.46875 C 11.34375 -118.75 11.804688 -119.851562 12.734375 -120.78125 C 13.671875 -121.71875 14.78125 -122.1875 16.0625 -122.1875 Z M 55.859375 -89.71875 L 55.859375 -70.34375 L 68.078125 -70.34375 C 70.171875 -70.34375 72.03125 -71.128906 73.65625 -72.703125 C 75.289062 -74.273438 76.109375 -76.515625 76.109375 -79.421875 C 76.109375 -82.328125 75.46875 -84.769531 74.1875 -86.75 C 72.90625 -88.726562 70.867188 -89.71875 68.078125 -89.71875 Z M 55.859375 -89.71875 "/></g></g></g><g clip-path="url(#46ce5004a9)"><path stroke-linecap="butt" transform="matrix(3.386102, 0, 0, 3.383683, -123.254093, -218.207546)" fill="none" stroke-linejoin="miter" d="M 45.580445 110.260461 L 67.740191 88.099882 L 88.910137 88.099882 L 97.480325 96.670425 L 158.049605 96.670425 " stroke="#000000" stroke-width="1" stroke-opacity="1" stroke-miterlimit="10"/></g><path fill="#3370bf" d="M 27.765625 166.753906 C 27.765625 167.363281 27.707031 167.964844 27.585938 168.5625 C 27.46875 169.160156 27.292969 169.738281 27.058594 170.300781 C 26.828125 170.863281 26.539062 171.398438 26.203125 171.90625 C 25.863281 172.410156 25.480469 172.878906 25.046875 173.308594 C 24.617188 173.742188 24.148438 174.125 23.644531 174.460938 C 23.136719 174.800781 22.601562 175.085938 22.039062 175.320312 C 21.476562 175.550781 20.894531 175.726562 20.296875 175.847656 C 19.699219 175.964844 19.097656 176.023438 18.488281 176.023438 C 17.878906 176.023438 17.277344 175.964844 16.679688 175.847656 C 16.082031 175.726562 15.5 175.550781 14.9375 175.320312 C 14.375 175.085938 13.839844 174.800781 13.332031 174.460938 C 12.828125 174.125 12.359375 173.742188 11.925781 173.308594 C 11.496094 172.878906 11.113281 172.410156 10.773438 171.90625 C 10.433594 171.398438 10.148438 170.863281 9.917969 170.300781 C 9.683594 169.738281 9.507812 169.160156 9.386719 168.5625 C 9.269531 167.964844 9.210938 167.363281 9.210938 166.753906 C 9.210938 166.144531 9.269531 165.542969 9.386719 164.945312 C 9.507812 164.347656 9.683594 163.769531 9.917969 163.207031 C 10.148438 162.644531 10.433594 162.109375 10.773438 161.601562 C 11.113281 161.097656 11.496094 160.628906 11.925781 160.199219 C 12.359375 159.769531 12.828125 159.382812 13.332031 159.046875 C 13.839844 158.707031 14.375 158.421875 14.9375 158.1875 C 15.5 157.957031 16.082031 157.78125 16.679688 157.660156 C 17.277344 157.542969 17.878906 157.484375 18.488281 157.484375 C 19.097656 157.484375 19.699219 157.542969 20.296875 157.660156 C 20.894531 157.78125 21.476562 157.957031 22.039062 158.1875 C 22.601562 158.421875 23.136719 158.707031 23.644531 159.046875 C 24.148438 159.382812 24.617188 159.769531 25.046875 160.199219 C 25.480469 160.628906 25.863281 161.097656 26.203125 161.601562 C 26.539062 162.109375 26.828125 162.644531 27.058594 163.207031 C 27.292969 163.769531 27.46875 164.347656 27.585938 164.945312 C 27.707031 165.542969 27.765625 166.144531 27.765625 166.753906 Z M 27.765625 166.753906 " fill-opacity="1" fill-rule="nonzero"/><g clip-path="url(#34d039c11c)"><path stroke-linecap="butt" transform="matrix(3.386102, 0, 0, 3.383683, -123.254093, -218.207546)" fill="none" stroke-linejoin="miter" d="M 46.799814 113.76995 C 46.799814 113.931571 46.791738 114.093193 46.776741 114.253659 C 46.760591 114.415281 46.736365 114.574593 46.705217 114.733905 C 46.67407 114.892063 46.633693 115.049067 46.587549 115.203761 C 46.540251 115.358456 46.486031 115.510842 46.423736 115.660918 C 46.362594 115.809841 46.293378 115.956454 46.217239 116.09845 C 46.139947 116.2416 46.056887 116.380133 45.966905 116.514048 C 45.878077 116.649117 45.781174 116.778414 45.678502 116.904247 C 45.575831 117.028927 45.467391 117.148988 45.353183 117.263277 C 45.238976 117.377567 45.119 117.486084 44.99441 117.588829 C 44.868666 117.691574 44.739461 117.787392 44.604489 117.877438 C 44.469516 117.967484 44.331083 118.050604 44.189188 118.126797 C 44.04614 118.202989 43.899631 118.272256 43.750815 118.333441 C 43.600846 118.39578 43.448569 118.450039 43.293985 118.497371 C 43.139401 118.544703 42.982509 118.583954 42.823311 118.615124 C 42.665266 118.646293 42.504914 118.670537 42.344562 118.686699 C 42.183056 118.701706 42.02155 118.709787 41.860044 118.709787 C 41.698538 118.709787 41.537033 118.701706 41.375527 118.686699 C 41.215175 118.670537 41.054823 118.646293 40.896778 118.615124 C 40.737579 118.583954 40.580688 118.544703 40.426104 118.497371 C 40.27152 118.450039 40.119243 118.39578 39.969273 118.333441 C 39.820457 118.272256 39.673948 118.202989 39.5309 118.126797 C 39.389006 118.050604 39.250572 117.967484 39.1156 117.877438 C 38.980627 117.787392 38.851422 117.691574 38.725679 117.588829 C 38.601088 117.486084 38.481113 117.377567 38.366905 117.263277 C 38.252697 117.148988 38.144258 117.028927 38.041586 116.904247 C 37.938915 116.778414 37.842011 116.649117 37.75203 116.514048 C 37.663201 116.380133 37.580141 116.2416 37.502849 116.09845 C 37.426711 115.956454 37.357494 115.809841 37.296353 115.660918 C 37.234057 115.510842 37.179838 115.358456 37.13254 115.203761 C 37.085241 115.049067 37.046019 114.892063 37.014871 114.733905 C 36.983724 114.574593 36.959498 114.415281 36.943347 114.253659 C 36.92835 114.093193 36.920275 113.931571 36.920275 113.76995 C 36.920275 113.608329 36.92835 113.446708 36.943347 113.286241 C 36.959498 113.12462 36.983724 112.965307 37.014871 112.805995 C 37.046019 112.647837 37.085241 112.490834 37.13254 112.336139 C 37.179838 112.181444 37.234057 112.029059 37.296353 111.878982 C 37.357494 111.730059 37.426711 111.583446 37.502849 111.44145 C 37.580141 111.2983 37.663201 111.159767 37.75203 111.025853 C 37.842011 110.890783 37.938915 110.761486 38.041586 110.635653 C 38.144258 110.510974 38.252697 110.390912 38.366905 110.276623 C 38.481113 110.162333 38.601088 110.053816 38.725679 109.951071 C 38.851422 109.848327 38.980627 109.752508 39.1156 109.662462 C 39.250572 109.572416 39.389006 109.489297 39.5309 109.413104 C 39.673948 109.336911 39.820457 109.267645 39.969273 109.206459 C 40.119243 109.14412 40.27152 109.089861 40.426104 109.042529 C 40.580688 108.995197 40.737579 108.955946 40.896778 108.924777 C 41.054823 108.893607 41.215175 108.869364 41.375527 108.854356 C 41.537033 108.838194 41.698538 108.830113 41.860044 108.830113 C 42.02155 108.830113 42.183056 108.838194 42.344562 108.854356 C 42.504914 108.869364 42.665266 108.893607 42.823311 108.924777 C 42.982509 108.955946 43.139401 108.995197 43.293985 109.042529 C 43.448569 109.089861 43.600846 109.14412 43.750815 109.206459 C 43.899631 109.267645 44.04614 109.336911 44.189188 109.413104 C 44.331083 109.489297 44.469516 109.572416 44.604489 109.662462 C 44.739461 109.752508 44.868666 109.848327 44.99441 109.951071 C 45.119 110.053816 45.238976 110.162333 45.353183 110.276623 C 45.467391 110.390912 45.575831 110.510974 45.678502 110.635653 C 45.781174 110.761486 45.878077 110.890783 45.966905 111.025853 C 46.056887 111.159767 46.139947 111.2983 46.217239 111.44145 C 46.293378 111.583446 46.362594 111.730059 46.423736 111.878982 C 46.486031 112.029059 46.540251 112.181444 46.587549 112.336139 C 46.633693 112.490834 46.67407 112.647837 46.705217 112.805995 C 46.736365 112.965307 46.760591 113.12462 46.776741 113.286241 C 46.791738 113.446708 46.799814 113.608329 46.799814 113.76995 Z M 46.799814 113.76995 " stroke="#000000" stroke-width="1" stroke-opacity="1" stroke-miterlimit="10"/></g><path stroke-linecap="butt" transform="matrix(3.386102, 0, 0, 3.383683, -123.254093, -218.207546)" fill="none" stroke-linejoin="miter" d="M 72.499997 91.750213 L 86.170307 91.750213 L 95.469578 101.05036 L 113.440556 101.05036 " stroke="#000000" stroke-width="0.25" stroke-opacity="1" stroke-miterlimit="10"/><path stroke-linecap="butt" transform="matrix(3.386102, 0, 0, 3.383683, -123.254093, -218.207546)" fill="none" stroke-linejoin="miter" d="M 106.49004 105.239813 L 117.180569 105.239813 L 121.409713 100.999564 L 144.269701 100.999564 " stroke="#000000" stroke-width="0.25" stroke-opacity="1" stroke-miterlimit="10"/><path fill="#3370bf" d="M 378.566406 123.542969 C 378.566406 123.867188 378.503906 124.179688 378.378906 124.476562 C 378.257812 124.773438 378.082031 125.039062 377.851562 125.265625 C 377.625 125.496094 377.359375 125.671875 377.0625 125.796875 C 376.761719 125.917969 376.453125 125.980469 376.128906 125.980469 C 375.804688 125.980469 375.492188 125.917969 375.195312 125.796875 C 374.898438 125.671875 374.632812 125.496094 374.402344 125.265625 C 374.175781 125.039062 374 124.773438 373.875 124.476562 C 373.753906 124.179688 373.691406 123.867188 373.691406 123.542969 C 373.691406 123.222656 373.753906 122.910156 373.875 122.613281 C 374 122.3125 374.175781 122.050781 374.402344 121.820312 C 374.632812 121.59375 374.898438 121.417969 375.195312 121.292969 C 375.492188 121.171875 375.804688 121.109375 376.128906 121.109375 C 376.453125 121.109375 376.761719 121.171875 377.0625 121.292969 C 377.359375 121.417969 377.625 121.59375 377.851562 121.820312 C 378.082031 122.050781 378.257812 122.3125 378.378906 122.613281 C 378.503906 122.910156 378.566406 123.222656 378.566406 123.542969 Z M 378.566406 123.542969 " fill-opacity="1" fill-rule="nonzero"/><path fill="#3370bf" d="M 390.28125 123.542969 C 390.28125 123.867188 390.21875 124.179688 390.097656 124.476562 C 389.972656 124.773438 389.796875 125.039062 389.566406 125.265625 C 389.339844 125.496094 389.074219 125.671875 388.777344 125.796875 C 388.476562 125.917969 388.167969 125.980469 387.84375 125.980469 C 387.519531 125.980469 387.210938 125.917969 386.910156 125.796875 C 386.613281 125.671875 386.347656 125.496094 386.121094 125.265625 C 385.890625 125.039062 385.714844 124.773438 385.589844 124.476562 C 385.46875 124.179688 385.40625 123.867188 385.40625 123.542969 C 385.40625 123.222656 385.46875 122.910156 385.589844 122.613281 C 385.714844 122.3125 385.890625 122.050781 386.121094 121.820312 C 386.347656 121.59375 386.613281 121.417969 386.910156 121.292969 C 387.210938 121.171875 387.519531 121.109375 387.84375 121.109375 C 388.167969 121.109375 388.476562 121.171875 388.777344 121.292969 C 389.074219 121.417969 389.339844 121.59375 389.566406 121.820312 C 389.796875 122.050781 389.972656 122.3125 390.097656 122.613281 C 390.21875 122.910156 390.28125 123.222656 390.28125 123.542969 Z M 390.28125 123.542969 " fill-opacity="1" fill-rule="nonzero"/><g clip-path="url(#5392d73f81)"><path stroke-linecap="butt" transform="matrix(-3.579788, -0.000000000000000438, 0.00000000000000044, -3.593156, 1160.082001, 718.095424)" fill="none" stroke-linejoin="miter" d="M 45.580335 110.260004 L 62.419669 93.420263 L 83.589961 93.420263 L 92.160213 101.990158 L 152.740135 101.990158 " stroke="#000000" stroke-width="1" stroke-opacity="1" stroke-miterlimit="10"/></g><path fill="#3370bf" d="M 1000.421875 309.300781 C 1000.421875 308.65625 1000.484375 308.015625 1000.613281 307.382812 C 1000.738281 306.746094 1000.921875 306.132812 1001.171875 305.535156 C 1001.417969 304.9375 1001.71875 304.371094 1002.078125 303.832031 C 1002.433594 303.292969 1002.839844 302.796875 1003.296875 302.339844 C 1003.75 301.882812 1004.246094 301.476562 1004.78125 301.117188 C 1005.316406 300.757812 1005.882812 300.453125 1006.476562 300.207031 C 1007.074219 299.957031 1007.6875 299.773438 1008.320312 299.644531 C 1008.949219 299.519531 1009.589844 299.457031 1010.230469 299.457031 C 1010.875 299.457031 1011.515625 299.519531 1012.144531 299.644531 C 1012.777344 299.773438 1013.390625 299.957031 1013.984375 300.207031 C 1014.582031 300.453125 1015.144531 300.757812 1015.679688 301.117188 C 1016.21875 301.476562 1016.710938 301.882812 1017.167969 302.339844 C 1017.625 302.796875 1018.03125 303.292969 1018.386719 303.832031 C 1018.746094 304.371094 1019.046875 304.9375 1019.292969 305.535156 C 1019.539062 306.132812 1019.726562 306.746094 1019.851562 307.382812 C 1019.976562 308.015625 1020.039062 308.65625 1020.039062 309.300781 C 1020.039062 309.949219 1019.976562 310.589844 1019.851562 311.222656 C 1019.726562 311.855469 1019.539062 312.472656 1019.292969 313.070312 C 1019.046875 313.667969 1018.746094 314.234375 1018.386719 314.773438 C 1018.03125 315.308594 1017.625 315.808594 1017.167969 316.265625 C 1016.710938 316.722656 1016.21875 317.128906 1015.679688 317.488281 C 1015.144531 317.847656 1014.582031 318.152344 1013.984375 318.398438 C 1013.390625 318.644531 1012.777344 318.832031 1012.144531 318.957031 C 1011.515625 319.085938 1010.875 319.148438 1010.230469 319.148438 C 1009.589844 319.148438 1008.949219 319.085938 1008.320312 318.957031 C 1007.6875 318.832031 1007.074219 318.644531 1006.476562 318.398438 C 1005.882812 318.152344 1005.316406 317.847656 1004.78125 317.488281 C 1004.246094 317.128906 1003.75 316.722656 1003.296875 316.265625 C 1002.839844 315.808594 1002.433594 315.308594 1002.078125 314.773438 C 1001.71875 314.234375 1001.417969 313.667969 1001.171875 313.070312 C 1000.921875 312.472656 1000.738281 311.855469 1000.613281 311.222656 C 1000.484375 310.589844 1000.421875 309.949219 1000.421875 309.300781 Z M 1000.421875 309.300781 " fill-opacity="1" fill-rule="nonzero"/><g clip-path="url(#f54d95c7a1)"><path stroke-linecap="butt" transform="matrix(-3.579788, -0.000000000000000438, 0.00000000000000044, -3.593156, 1160.082001, 718.095424)" fill="none" stroke-linejoin="miter" d="M 46.800292 113.770367 C 46.800292 113.931264 46.791562 114.093247 46.776285 114.254143 C 46.759917 114.415039 46.737002 114.574848 46.705358 114.73357 C 46.673713 114.892292 46.63443 115.04884 46.587508 115.2043 C 46.540587 115.358674 46.486027 115.510873 46.423829 115.660897 C 46.361631 115.809835 46.292886 115.955511 46.216502 116.099013 C 46.140118 116.241428 46.057187 116.379495 45.967709 116.514299 C 45.87714 116.649104 45.781115 116.778474 45.678542 116.903494 C 45.57597 117.028515 45.467941 117.149187 45.353366 117.263336 C 45.23879 117.377486 45.118759 117.486199 44.994362 117.58839 C 44.868875 117.691668 44.739023 117.787336 44.604805 117.877568 C 44.469497 117.967801 44.330915 118.050423 44.18906 118.126523 C 44.046113 118.202622 43.899893 118.272199 43.750399 118.334166 C 43.600905 118.396132 43.449229 118.450489 43.294279 118.497236 C 43.139329 118.543983 42.982197 118.58312 42.823974 118.614647 C 42.664659 118.646174 42.505345 118.670091 42.343848 118.686398 C 42.183442 118.701618 42.021945 118.710315 41.860448 118.710315 C 41.69786 118.710315 41.536363 118.701618 41.375957 118.686398 C 41.21446 118.670091 41.055145 118.646174 40.895831 118.614647 C 40.737607 118.58312 40.580475 118.543983 40.425525 118.497236 C 40.271667 118.450489 40.118899 118.396132 39.969405 118.334166 C 39.819912 118.272199 39.673691 118.202622 39.531836 118.126523 C 39.388889 118.050423 39.250307 117.967801 39.114999 117.877568 C 38.980782 117.787336 38.85093 117.691668 38.726533 117.58839 C 38.601046 117.486199 38.481014 117.377486 38.366439 117.263336 C 38.252954 117.149187 38.143835 117.028515 38.041262 116.903494 C 37.93869 116.778474 37.842665 116.649104 37.752095 116.514299 C 37.662617 116.379495 37.579686 116.241428 37.503303 116.099013 C 37.426919 115.955511 37.358174 115.809835 37.295975 115.660897 C 37.233777 115.510873 37.179218 115.358674 37.132296 115.2043 C 37.085375 115.04884 37.046092 114.892292 37.014447 114.73357 C 36.983893 114.574848 36.959887 114.415039 36.943519 114.254143 C 36.928242 114.093247 36.919513 113.931264 36.919513 113.770367 C 36.919513 113.608384 36.928242 113.446401 36.943519 113.285505 C 36.959887 113.124608 36.983893 112.964799 37.014447 112.806078 C 37.046092 112.647356 37.085375 112.490808 37.132296 112.336435 C 37.179218 112.180974 37.233777 112.028775 37.295975 111.879837 C 37.358174 111.729813 37.426919 111.584136 37.503303 111.441721 C 37.579686 111.298219 37.662617 111.160153 37.752095 111.025348 C 37.842665 110.890543 37.93869 110.761174 38.041262 110.636153 C 38.143835 110.511133 38.252954 110.391548 38.366439 110.277398 C 38.481014 110.162162 38.601046 110.053448 38.726533 109.951258 C 38.85093 109.849067 38.980782 109.752312 39.114999 109.662079 C 39.250307 109.572934 39.388889 109.489225 39.531836 109.413125 C 39.673691 109.337026 39.819912 109.267449 39.969405 109.205482 C 40.118899 109.144602 40.271667 109.089158 40.425525 109.042412 C 40.580475 108.995665 40.737607 108.956528 40.895831 108.925001 C 41.055145 108.893474 41.21446 108.869557 41.375957 108.85325 C 41.536363 108.83803 41.69786 108.83042 41.860448 108.83042 C 42.021945 108.83042 42.183442 108.83803 42.343848 108.85325 C 42.505345 108.869557 42.664659 108.893474 42.823974 108.925001 C 42.982197 108.956528 43.139329 108.995665 43.294279 109.042412 C 43.449229 109.089158 43.600905 109.144602 43.750399 109.205482 C 43.899893 109.267449 44.046113 109.337026 44.18906 109.413125 C 44.330915 109.489225 44.469497 109.572934 44.604805 109.662079 C 44.739023 109.752312 44.868875 109.849067 44.994362 109.951258 C 45.118759 110.053448 45.23879 110.162162 45.353366 110.277398 C 45.467941 110.391548 45.57597 110.511133 45.678542 110.636153 C 45.781115 110.761174 45.87714 110.890543 45.967709 111.025348 C 46.057187 111.160153 46.140118 111.298219 46.216502 111.441721 C 46.292886 111.584136 46.361631 111.729813 46.423829 111.879837 C 46.486027 112.028775 46.540587 112.180974 46.587508 112.336435 C 46.63443 112.490808 46.673713 112.647356 46.705358 112.806078 C 46.737002 112.964799 46.759917 113.124608 46.776285 113.285505 C 46.791562 113.446401 46.800292 113.608384 46.800292 113.770367 Z M 46.800292 113.770367 " stroke="#000000" stroke-width="1" stroke-opacity="1" stroke-miterlimit="10"/></g><path fill="#3370bf" d="M 851.039062 362.15625 L 880.179688 362.15625 L 893.171875 375.164062 L 864.035156 375.164062 Z M 851.039062 362.15625 " fill-opacity="1" fill-rule="nonzero"/><path fill="#3370bf" d="M 888.269531 362.15625 L 917.40625 362.15625 L 931.011719 375.164062 L 901.871094 375.164062 Z M 888.269531 362.15625 " fill-opacity="1" fill-rule="nonzero"/><path stroke-linecap="butt" transform="matrix(-3.579788, -0.000000000000000438, 0.00000000000000044, -3.593156, 1160.082001, 718.095424)" fill="none" stroke-linejoin="miter" d="M 94.269495 105.429858 L 121.980414 105.429858 L 125.499521 101.90971 " stroke="#000000" stroke-width="0.25" stroke-opacity="1" stroke-miterlimit="10"/></svg>