<svg xmlns="http://www.w3.org/2000/svg" xmlns:xlink="http://www.w3.org/1999/xlink" width="500" zoomAndPan="magnify" viewBox="0 0 375 374.999991" height="500" preserveAspectRatio="xMidYMid meet" version="1.0"><defs><clipPath id="8a4d607d0c"><path d="M 0 0 L 374 0 L 374 374 L 0 374 Z M 0 0 " clip-rule="nonzero"/></clipPath><clipPath id="b371d68844"><path d="M 275.515625 221.25 L 324.265625 249.925781 C 329.558594 253.015625 331.324219 259.632812 328.234375 264.925781 C 312.351562 291.617188 290.074219 313.675781 263.601562 329.117188 C 237.792969 343.898438 207.792969 352.28125 176.03125 352.28125 C 173.824219 352.28125 170.957031 352.28125 167.648438 352.058594 L 167.207031 352.058594 C 163.898438 358.898438 158.601562 364.410156 152.207031 368.160156 C 143.824219 373.015625 133.675781 374.558594 123.75 371.910156 C 113.601562 369.265625 105.660156 362.648438 100.808594 354.484375 C 95.957031 346.101562 94.410156 335.957031 97.058594 325.808594 C 99.707031 315.882812 106.324219 307.71875 114.484375 303.089844 C 122.867188 298.234375 133.234375 296.46875 143.160156 299.117188 C 153.089844 301.984375 161.25 308.382812 166.101562 316.765625 C 168.308594 320.734375 169.851562 325.367188 170.734375 330 C 172.28125 330 174.042969 330.21875 176.03125 330.21875 C 203.824219 330.21875 230.074219 322.71875 252.574219 309.925781 C 272.648438 298.234375 290.074219 282.351562 303.308594 263.160156 L 264.484375 240.441406 C 261.175781 245.074219 257.425781 249.265625 253.457031 253.457031 C 233.601562 273.089844 206.25 285.441406 176.03125 285.441406 C 146.03125 285.441406 118.675781 273.089844 98.824219 253.457031 C 94.632812 249.042969 90.441406 244.191406 86.910156 239.117188 L 37.71875 266.691406 C 32.425781 269.78125 25.589844 267.792969 22.71875 262.5 L 22.5 262.5 C 15.21875 249.042969 9.484375 234.925781 5.734375 220.367188 C 1.984375 206.03125 0 191.25 0 176.03125 C 0 157.5 2.867188 139.632812 8.160156 122.867188 C 13.015625 107.648438 19.851562 93.53125 28.234375 80.515625 C 23.824219 74.117188 21.839844 66.839844 21.839844 59.339844 C 21.839844 49.851562 25.367188 40.148438 32.867188 32.867188 C 40.148438 25.367188 49.851562 21.839844 59.339844 21.839844 C 69.042969 21.839844 78.75 25.367188 86.03125 32.867188 C 93.308594 40.148438 97.058594 49.851562 97.058594 59.339844 C 97.058594 69.042969 93.308594 78.75 86.03125 86.03125 C 78.75 93.308594 69.042969 97.058594 59.339844 97.058594 C 54.707031 97.058594 50.074219 96.175781 45.660156 94.410156 C 38.824219 105.21875 33.308594 117.132812 29.339844 129.484375 C 24.707031 144.265625 22.058594 159.925781 22.058594 176.03125 C 22.058594 189.484375 23.824219 202.5 27.132812 214.851562 C 29.558594 224.117188 32.867188 233.160156 36.839844 241.765625 L 76.101562 219.925781 C 70.148438 206.46875 66.839844 191.691406 66.839844 176.03125 C 66.839844 146.03125 79.191406 118.675781 98.824219 98.824219 C 116.25 81.617188 139.410156 70.148438 165 67.5 L 165 11.03125 C 165 4.851562 170.074219 0 176.03125 0 C 210.882812 0 243.53125 10.148438 270.882812 27.792969 C 297.132812 44.558594 318.75 67.941406 332.867188 95.957031 C 340.589844 95.292969 348.089844 97.058594 354.265625 100.808594 L 354.484375 100.808594 C 362.648438 105.660156 369.265625 113.601562 371.910156 123.75 C 374.558594 133.675781 373.015625 143.824219 368.160156 152.207031 C 363.308594 160.589844 355.367188 167.207031 345.21875 169.851562 C 335.292969 172.5 325.148438 170.734375 316.765625 166.101562 L 316.765625 165.882812 L 316.765625 166.101562 C 308.382812 161.25 301.984375 153.089844 299.117188 143.160156 C 296.46875 133.234375 298.234375 123.089844 303.089844 114.707031 L 303.089844 114.484375 C 305.292969 110.515625 308.382812 106.765625 312.132812 103.898438 C 299.78125 80.515625 281.25 60.660156 258.96875 46.324219 C 238.015625 32.867188 213.53125 24.484375 187.28125 22.5 L 187.28125 67.5 C 212.867188 70.148438 236.03125 81.617188 253.457031 98.824219 C 273.089844 118.675781 285.441406 146.03125 285.441406 176.03125 C 285.441406 192.351562 281.910156 207.574219 275.515625 221.25 Z M 237.792969 114.484375 C 221.910156 98.824219 200.074219 89.117188 176.03125 89.117188 C 152.207031 89.117188 130.367188 98.824219 114.484375 114.484375 C 98.824219 130.367188 89.117188 152.207031 89.117188 176.03125 C 89.117188 200.074219 98.824219 221.910156 114.484375 237.792969 C 130.367188 253.457031 152.207031 263.160156 176.03125 263.160156 C 200.074219 263.160156 221.910156 253.457031 237.792969 237.792969 C 253.457031 221.910156 263.160156 200.074219 263.160156 176.03125 C 263.160156 152.207031 253.457031 130.367188 237.792969 114.484375 Z M 176.03125 131.46875 C 188.382812 131.46875 199.632812 136.542969 207.574219 144.707031 C 215.734375 152.648438 220.808594 163.898438 220.808594 176.03125 C 220.808594 188.382812 215.734375 199.632812 207.574219 207.574219 C 199.632812 215.734375 188.382812 220.808594 176.03125 220.808594 C 163.898438 220.808594 152.648438 215.734375 144.707031 207.574219 C 136.542969 199.632812 131.46875 188.382812 131.46875 176.03125 C 131.46875 163.898438 136.542969 152.648438 144.707031 144.707031 C 152.648438 136.542969 163.898438 131.46875 176.03125 131.46875 Z M 191.910156 160.367188 C 187.941406 156.175781 182.425781 153.75 176.03125 153.75 C 169.851562 153.75 164.339844 156.175781 160.367188 160.367188 C 156.175781 164.339844 153.75 169.851562 153.75 176.03125 C 153.75 182.425781 156.175781 187.941406 160.367188 191.910156 C 164.339844 196.101562 169.851562 198.53125 176.03125 198.53125 C 182.425781 198.53125 187.941406 196.101562 191.910156 191.910156 C 196.101562 187.941406 198.53125 182.425781 198.53125 176.03125 C 198.53125 169.851562 196.101562 164.339844 191.910156 160.367188 Z M 59.339844 43.898438 C 55.367188 43.898438 51.398438 45.441406 48.53125 48.53125 C 45.441406 51.398438 43.898438 55.367188 43.898438 59.339844 C 43.898438 63.308594 45.441406 67.28125 48.53125 70.367188 C 51.398438 73.457031 55.367188 75 59.339844 75 C 63.308594 75 67.28125 73.457031 70.367188 70.367188 C 73.457031 67.28125 75 63.308594 75 59.339844 C 75 55.367188 73.457031 51.398438 70.367188 48.53125 C 67.28125 45.441406 63.308594 43.898438 59.339844 43.898438 Z M 120 343.234375 C 121.984375 346.765625 125.292969 349.410156 129.484375 350.515625 C 133.457031 351.617188 137.648438 350.957031 141.175781 348.96875 C 144.707031 346.984375 147.351562 343.675781 148.457031 339.707031 C 149.558594 335.515625 148.898438 331.324219 146.910156 327.792969 C 144.925781 324.484375 141.617188 321.617188 137.425781 320.515625 C 133.234375 319.410156 129.042969 320.074219 125.734375 322.058594 C 122.207031 324.042969 119.558594 327.351562 118.457031 331.542969 C 117.351562 335.734375 118.015625 339.925781 120 343.234375 Z M 348.96875 141.175781 C 350.957031 137.648438 351.617188 133.457031 350.515625 129.484375 C 349.410156 125.292969 346.765625 121.984375 343.234375 120 C 339.925781 118.015625 335.734375 117.351562 331.542969 118.457031 C 327.351562 119.558594 324.042969 122.207031 322.058594 125.734375 C 320.074219 129.042969 319.410156 133.234375 320.515625 137.425781 C 321.617188 141.617188 324.484375 144.925781 327.792969 146.910156 C 331.324219 148.898438 335.515625 149.558594 339.707031 148.457031 C 343.675781 147.351562 346.984375 144.707031 348.96875 141.175781 Z M 348.96875 141.175781 " clip-rule="nonzero"/></clipPath></defs><g clip-path="url(#8a4d607d0c)"><g clip-path="url(#b371d68844)"><path fill="#ffffff" d="M 0 0 L 0 374.558594 L 374.558594 374.558594 L 374.558594 0 Z M 0 0 " fill-opacity="1" fill-rule="nonzero"/></g></g></svg>